<svg width="8" height="14" viewBox="0 0 8 14" fill="none" xmlns="http://www.w3.org/2000/svg">
<path fill-rule="evenodd" clip-rule="evenodd" d="M0.292779 5.93768C0.105309 6.1252 -7.15256e-06 6.37951 -7.15256e-06 6.64468C-7.15256e-06 6.90984 0.105309 7.16415 0.292779 7.35168L5.94978 13.0087C6.04203 13.1042 6.15237 13.1804 6.27437 13.2328C6.39638 13.2852 6.5276 13.3128 6.66038 13.3139C6.79316 13.3151 6.92484 13.2898 7.04773 13.2395C7.17063 13.1892 7.28228 13.115 7.37617 13.0211C7.47007 12.9272 7.54432 12.8155 7.5946 12.6926C7.64488 12.5697 7.67018 12.4381 7.66903 12.3053C7.66788 12.1725 7.64029 12.0413 7.58788 11.9193C7.53547 11.7973 7.45929 11.6869 7.36378 11.5947L2.41378 6.64468L7.36378 1.69468C7.54594 1.50607 7.64673 1.25347 7.64445 0.991276C7.64218 0.729079 7.53701 0.478266 7.3516 0.292858C7.16619 0.10745 6.91538 0.00228024 6.65318 1.90735e-06C6.39098 -0.00227642 6.13838 0.0985174 5.94978 0.280676L0.292779 5.93768Z" fill="#7C4AF9"/>
</svg>
