<svg width="15" height="15" viewBox="0 0 15 15" fill="none" xmlns="http://www.w3.org/2000/svg">
<path d="M14.4005 0H0.600021C0.267743 0 0 0.267743 0 0.599488V14.4C0 14.7323 0.267743 15 0.599488 15H14.4C14.7323 15 15 14.7323 15 14.4005V0.600021C15 0.267743 14.7323 0 14.4005 0ZM4.80017 11.85C4.80017 11.8899 4.78432 11.9282 4.75612 11.9564C4.72791 11.9846 4.68966 12.0004 4.64977 12.0004H3.14998C3.11018 12.0003 3.07206 11.9844 3.04397 11.9562C3.01588 11.928 3.00011 11.8898 3.00011 11.85V3.14998C3.00011 3.06731 3.06731 3.00011 3.14945 3.00011H4.64977C4.73244 3.00011 4.79964 3.06731 4.79964 3.14945V11.85H4.80017ZM8.4003 6.60023C8.40002 6.63994 8.38405 6.67792 8.35587 6.7059C8.3277 6.73387 8.2896 6.74957 8.24989 6.74957H6.75011C6.7104 6.74957 6.67231 6.73387 6.64413 6.7059C6.61595 6.67792 6.59998 6.63994 6.5997 6.60023V3.14945C6.5997 3.06731 6.66744 3.00011 6.75011 3.00011H8.24989C8.33256 3.00011 8.4003 3.06731 8.4003 3.14945V6.60023ZM12.0004 7.94962C12.0004 7.98951 11.9846 8.02776 11.9564 8.05597C11.9282 8.08418 11.8899 8.10002 11.85 8.10002H10.3502C10.3104 8.10002 10.2723 8.08425 10.2441 8.05616C10.2159 8.02807 10.2 7.98995 10.1998 7.95015V3.14998C10.1998 3.06731 10.2676 3.00011 10.3502 3.00011H11.85C11.9327 3.00011 12.0004 3.06731 12.0004 3.14945V7.94962Z" fill="#7C4AF9"/>
</svg>
